<svg width="200" height="166" viewBox="0 0 200 166" fill="none" xmlns="http://www.w3.org/2000/svg">
<path opacity="0.3" d="M140 40C140 62.0914 122.091 80 100 80C77.9086 80 60 62.0914 60 40C60 17.9086 77.9086 0 100 0C122.091 0 140 17.9086 140 40ZM70.9071 40C70.9071 56.0675 83.9325 69.0929 100 69.0929C116.068 69.0929 129.093 56.0675 129.093 40C129.093 23.9325 116.068 10.9071 100 10.9071C83.9325 10.9071 70.9071 23.9325 70.9071 40Z" fill="white"/>
<circle cx="100" cy="40" r="29" fill="white"/>
<path d="M100 57.2728C109.54 57.2728 117.273 49.5395 117.273 40C117.273 30.4606 109.54 22.7273 100 22.7273C90.4608 22.7273 82.7275 30.4606 82.7275 40C82.7275 49.5395 90.4608 57.2728 100 57.2728Z" stroke="black" stroke-width="2" stroke-linecap="round" stroke-linejoin="round"/>
<path d="M105.091 34.547C104.762 33.9758 104.283 33.505 103.707 33.1848C103.13 32.8646 102.478 32.7072 101.819 32.7294H98.1823C97.2178 32.7294 96.2929 33.1124 95.611 33.7941C94.929 34.4759 94.5459 35.4005 94.5459 36.3647C94.5459 37.3288 94.929 38.2535 95.611 38.9353C96.2929 39.617 97.2178 40 98.1823 40H101.819C102.783 40 103.708 40.383 104.39 41.0648C105.072 41.7465 105.455 42.6712 105.455 43.6354C105.455 44.5995 105.072 45.5242 104.39 46.2059C103.708 46.8877 102.783 47.2707 101.819 47.2707H98.1823C97.5232 47.2929 96.8704 47.1354 96.2939 46.8153C95.7174 46.4951 95.2389 46.0242 94.9095 45.453" stroke="black" stroke-width="2.75" stroke-linecap="round" stroke-linejoin="round"/>
<path d="M100 28.1818V32.1212M100 47.8787V51.8181" stroke="black" stroke-width="2.75" stroke-linecap="round" stroke-linejoin="round"/>
<path d="M78.4886 131.318C76.7917 131.318 75.2803 131.027 73.9545 130.443C72.6364 129.852 71.5947 129.042 70.8295 128.011C70.072 126.973 69.6818 125.777 69.6591 124.42H74.6136C74.6439 124.989 74.8295 125.489 75.1705 125.92C75.5189 126.345 75.9811 126.674 76.5568 126.909C77.1326 127.144 77.7803 127.261 78.5 127.261C79.25 127.261 79.9129 127.129 80.4886 126.864C81.0644 126.598 81.5152 126.231 81.8409 125.761C82.1667 125.292 82.3295 124.75 82.3295 124.136C82.3295 123.515 82.1553 122.966 81.8068 122.489C81.4659 122.004 80.9735 121.625 80.3295 121.352C79.6932 121.08 78.9356 120.943 78.0568 120.943H75.8864V117.33H78.0568C78.7992 117.33 79.4545 117.201 80.0227 116.943C80.5985 116.686 81.0455 116.33 81.3636 115.875C81.6818 115.413 81.8409 114.875 81.8409 114.261C81.8409 113.678 81.7008 113.167 81.4205 112.727C81.1477 112.28 80.7614 111.932 80.2614 111.682C79.7689 111.432 79.1932 111.307 78.5341 111.307C77.8674 111.307 77.2576 111.428 76.7045 111.67C76.1515 111.905 75.7083 112.242 75.375 112.682C75.0417 113.121 74.8636 113.636 74.8409 114.227H70.125C70.1477 112.886 70.5303 111.705 71.2727 110.682C72.0152 109.659 73.0152 108.86 74.2727 108.284C75.5379 107.701 76.9659 107.409 78.5568 107.409C80.1629 107.409 81.5682 107.701 82.7727 108.284C83.9773 108.867 84.9129 109.655 85.5795 110.648C86.2538 111.633 86.5871 112.739 86.5795 113.966C86.5871 115.269 86.1818 116.356 85.3636 117.227C84.553 118.098 83.4962 118.652 82.1932 118.886V119.068C83.9053 119.288 85.2083 119.883 86.1023 120.852C87.0038 121.814 87.4508 123.019 87.4432 124.466C87.4508 125.792 87.0682 126.97 86.2955 128C85.5303 129.03 84.4735 129.841 83.125 130.432C81.7765 131.023 80.2311 131.318 78.4886 131.318ZM100.862 131.318C99.1654 131.318 97.6541 131.027 96.3283 130.443C95.0101 129.852 93.9684 129.042 93.2033 128.011C92.4457 126.973 92.0556 125.777 92.0328 124.42H96.9874C97.0177 124.989 97.2033 125.489 97.5442 125.92C97.8927 126.345 98.3548 126.674 98.9306 126.909C99.5063 127.144 100.154 127.261 100.874 127.261C101.624 127.261 102.287 127.129 102.862 126.864C103.438 126.598 103.889 126.231 104.215 125.761C104.54 125.292 104.703 124.75 104.703 124.136C104.703 123.515 104.529 122.966 104.181 122.489C103.84 122.004 103.347 121.625 102.703 121.352C102.067 121.08 101.309 120.943 100.431 120.943H98.2601V117.33H100.431C101.173 117.33 101.828 117.201 102.396 116.943C102.972 116.686 103.419 116.33 103.737 115.875C104.056 115.413 104.215 114.875 104.215 114.261C104.215 113.678 104.075 113.167 103.794 112.727C103.521 112.28 103.135 111.932 102.635 111.682C102.143 111.432 101.567 111.307 100.908 111.307C100.241 111.307 99.6313 111.428 99.0783 111.67C98.5253 111.905 98.0821 112.242 97.7488 112.682C97.4154 113.121 97.2374 113.636 97.2147 114.227H92.4988C92.5215 112.886 92.9041 111.705 93.6465 110.682C94.3889 109.659 95.3889 108.86 96.6465 108.284C97.9116 107.701 99.3397 107.409 100.931 107.409C102.537 107.409 103.942 107.701 105.146 108.284C106.351 108.867 107.287 109.655 107.953 110.648C108.628 111.633 108.961 112.739 108.953 113.966C108.961 115.269 108.556 116.356 107.737 117.227C106.927 118.098 105.87 118.652 104.567 118.886V119.068C106.279 119.288 107.582 119.883 108.476 120.852C109.378 121.814 109.825 123.019 109.817 124.466C109.825 125.792 109.442 126.97 108.669 128C107.904 129.03 106.847 129.841 105.499 130.432C104.15 131.023 102.605 131.318 100.862 131.318ZM119.066 125.977L119.077 120.17H119.782L125.373 113.545H130.929L123.418 122.318H122.27L119.066 125.977ZM114.679 131V107.727H119.52V131H114.679ZM125.588 131L120.452 123.398L123.679 119.977L131.259 131H125.588Z" fill="white"/>
<path d="M12.544 148.928V160H11.088V151.744L7.408 160H6.384L2.688 151.728V160H1.232V148.928H2.8L6.896 158.08L10.992 148.928H12.544ZM18.8373 160.144C18.0159 160.144 17.2693 159.957 16.5973 159.584C15.9359 159.211 15.4133 158.683 15.0293 158C14.6559 157.307 14.4693 156.507 14.4693 155.6C14.4693 154.704 14.6613 153.915 15.0453 153.232C15.4399 152.539 15.9733 152.011 16.6453 151.648C17.3173 151.275 18.0693 151.088 18.9013 151.088C19.7333 151.088 20.4853 151.275 21.1573 151.648C21.8293 152.011 22.3573 152.533 22.7413 153.216C23.1359 153.899 23.3333 154.693 23.3333 155.6C23.3333 156.507 23.1306 157.307 22.7253 158C22.3306 158.683 21.7919 159.211 21.1093 159.584C20.4266 159.957 19.6693 160.144 18.8373 160.144ZM18.8373 158.864C19.3599 158.864 19.8506 158.741 20.3093 158.496C20.7679 158.251 21.1359 157.883 21.4133 157.392C21.7013 156.901 21.8453 156.304 21.8453 155.6C21.8453 154.896 21.7066 154.299 21.4293 153.808C21.1519 153.317 20.7893 152.955 20.3413 152.72C19.8933 152.475 19.4079 152.352 18.8853 152.352C18.3519 152.352 17.8613 152.475 17.4133 152.72C16.9759 152.955 16.6239 153.317 16.3573 153.808C16.0906 154.299 15.9573 154.896 15.9573 155.6C15.9573 156.315 16.0853 156.917 16.3413 157.408C16.6079 157.899 16.9599 158.267 17.3973 158.512C17.8346 158.747 18.3146 158.864 18.8373 158.864ZM26.7036 152.848C26.9916 152.347 27.4183 151.931 27.9836 151.6C28.5596 151.259 29.2263 151.088 29.9836 151.088C30.7623 151.088 31.4663 151.275 32.0956 151.648C32.7356 152.021 33.237 152.549 33.5996 153.232C33.9623 153.904 34.1436 154.688 34.1436 155.584C34.1436 156.469 33.9623 157.259 33.5996 157.952C33.237 158.645 32.7356 159.184 32.0956 159.568C31.4663 159.952 30.7623 160.144 29.9836 160.144C29.237 160.144 28.5756 159.979 27.9996 159.648C27.4343 159.307 27.0023 158.885 26.7036 158.384V164.16H25.2476V151.232H26.7036V152.848ZM32.6556 155.584C32.6556 154.923 32.5223 154.347 32.2556 153.856C31.989 153.365 31.6263 152.992 31.1676 152.736C30.7196 152.48 30.2236 152.352 29.6796 152.352C29.1463 152.352 28.6503 152.485 28.1916 152.752C27.7436 153.008 27.381 153.387 27.1036 153.888C26.837 154.379 26.7036 154.949 26.7036 155.6C26.7036 156.261 26.837 156.843 27.1036 157.344C27.381 157.835 27.7436 158.213 28.1916 158.48C28.6503 158.736 29.1463 158.864 29.6796 158.864C30.2236 158.864 30.7196 158.736 31.1676 158.48C31.6263 158.213 31.989 157.835 32.2556 157.344C32.5223 156.843 32.6556 156.256 32.6556 155.584ZM40.3321 151.072C41.3988 151.072 42.2628 151.397 42.9241 152.048C43.5855 152.688 43.9161 153.616 43.9161 154.832V160H42.4761V155.04C42.4761 154.165 42.2575 153.499 41.8201 153.04C41.3828 152.571 40.7855 152.336 40.0281 152.336C39.2601 152.336 38.6468 152.576 38.1881 153.056C37.7401 153.536 37.5161 154.235 37.5161 155.152V160H36.0601V151.232H37.5161V152.48C37.8041 152.032 38.1935 151.685 38.6841 151.44C39.1855 151.195 39.7348 151.072 40.3321 151.072ZM48.0705 152.432V157.6C48.0705 158.027 48.1612 158.331 48.3425 158.512C48.5238 158.683 48.8385 158.768 49.2865 158.768H50.3585V160H49.0465C48.2358 160 47.6278 159.813 47.2225 159.44C46.8172 159.067 46.6145 158.453 46.6145 157.6V152.432H45.4785V151.232H46.6145V149.024H48.0705V151.232H50.3585V152.432H48.0705ZM56.4746 151.072C57.136 151.072 57.7333 151.216 58.2666 151.504C58.8 151.781 59.216 152.203 59.5146 152.768C59.824 153.333 59.9786 154.021 59.9786 154.832V160H58.5386V155.04C58.5386 154.165 58.32 153.499 57.8826 153.04C57.4453 152.571 56.848 152.336 56.0906 152.336C55.3226 152.336 54.7093 152.576 54.2506 153.056C53.8026 153.536 53.5786 154.235 53.5786 155.152V160H52.1226V148.16H53.5786V152.48C53.8666 152.032 54.2613 151.685 54.7626 151.44C55.2746 151.195 55.8453 151.072 56.4746 151.072ZM63.813 148.16V160H62.357V148.16H63.813ZM73.8465 151.232L68.5665 164.128H67.0625L68.7905 159.904L65.2545 151.232H66.8705L69.6225 158.336L72.3425 151.232H73.8465ZM87.0318 152.112C87.0318 153.04 86.7118 153.813 86.0718 154.432C85.4424 155.04 84.4771 155.344 83.1758 155.344H81.0318V160H79.5758V148.848H83.1758C84.4344 148.848 85.3891 149.152 86.0398 149.76C86.7011 150.368 87.0318 151.152 87.0318 152.112ZM83.1758 154.144C83.9864 154.144 84.5838 153.968 84.9678 153.616C85.3518 153.264 85.5438 152.763 85.5438 152.112C85.5438 150.736 84.7544 150.048 83.1758 150.048H81.0318V154.144H83.1758ZM90.2974 152.656C90.5534 152.155 90.916 151.765 91.3854 151.488C91.8654 151.211 92.4467 151.072 93.1294 151.072V152.576H92.7454C91.1134 152.576 90.2974 153.461 90.2974 155.232V160H88.8414V151.232H90.2974V152.656ZM98.6341 160.144C97.8128 160.144 97.0661 159.957 96.3941 159.584C95.7328 159.211 95.2101 158.683 94.8261 158C94.4528 157.307 94.2661 156.507 94.2661 155.6C94.2661 154.704 94.4581 153.915 94.8421 153.232C95.2368 152.539 95.7701 152.011 96.4421 151.648C97.1141 151.275 97.8661 151.088 98.6981 151.088C99.5301 151.088 100.282 151.275 100.954 151.648C101.626 152.011 102.154 152.533 102.538 153.216C102.933 153.899 103.13 154.693 103.13 155.6C103.13 156.507 102.927 157.307 102.522 158C102.127 158.683 101.589 159.211 100.906 159.584C100.223 159.957 99.4661 160.144 98.6341 160.144ZM98.6341 158.864C99.1568 158.864 99.6475 158.741 100.106 158.496C100.565 158.251 100.933 157.883 101.21 157.392C101.498 156.901 101.642 156.304 101.642 155.6C101.642 154.896 101.503 154.299 101.226 153.808C100.949 153.317 100.586 152.955 100.138 152.72C99.6901 152.475 99.2048 152.352 98.6821 152.352C98.1488 152.352 97.6581 152.475 97.2101 152.72C96.7728 152.955 96.4208 153.317 96.1541 153.808C95.8875 154.299 95.7541 154.896 95.7541 155.6C95.7541 156.315 95.8821 156.917 96.1381 157.408C96.4048 157.899 96.7568 158.267 97.1941 158.512C97.6315 158.747 98.1115 158.864 98.6341 158.864ZM104.501 155.584C104.501 154.688 104.682 153.904 105.045 153.232C105.407 152.549 105.903 152.021 106.533 151.648C107.173 151.275 107.887 151.088 108.677 151.088C109.359 151.088 109.994 151.248 110.581 151.568C111.167 151.877 111.615 152.288 111.925 152.8V148.16H113.397V160H111.925V158.352C111.637 158.875 111.21 159.307 110.645 159.648C110.079 159.979 109.418 160.144 108.661 160.144C107.882 160.144 107.173 159.952 106.533 159.568C105.903 159.184 105.407 158.645 105.045 157.952C104.682 157.259 104.501 156.469 104.501 155.584ZM111.925 155.6C111.925 154.939 111.791 154.363 111.525 153.872C111.258 153.381 110.895 153.008 110.437 152.752C109.989 152.485 109.493 152.352 108.949 152.352C108.405 152.352 107.909 152.48 107.461 152.736C107.013 152.992 106.655 153.365 106.389 153.856C106.122 154.347 105.989 154.923 105.989 155.584C105.989 156.256 106.122 156.843 106.389 157.344C106.655 157.835 107.013 158.213 107.461 158.48C107.909 158.736 108.405 158.864 108.949 158.864C109.493 158.864 109.989 158.736 110.437 158.48C110.895 158.213 111.258 157.835 111.525 157.344C111.791 156.843 111.925 156.261 111.925 155.6ZM123.633 151.232V160H122.177V158.704C121.9 159.152 121.51 159.504 121.009 159.76C120.518 160.005 119.974 160.128 119.377 160.128C118.694 160.128 118.081 159.989 117.537 159.712C116.993 159.424 116.561 158.997 116.241 158.432C115.932 157.867 115.777 157.179 115.777 156.368V151.232H117.217V156.176C117.217 157.04 117.436 157.707 117.873 158.176C118.31 158.635 118.908 158.864 119.665 158.864C120.444 158.864 121.057 158.624 121.505 158.144C121.953 157.664 122.177 156.965 122.177 156.048V151.232H123.633ZM125.547 155.584C125.547 154.688 125.729 153.904 126.091 153.232C126.454 152.549 126.95 152.021 127.579 151.648C128.219 151.275 128.934 151.088 129.723 151.088C130.406 151.088 131.041 151.248 131.627 151.568C132.214 151.877 132.662 152.288 132.971 152.8V148.16H134.443V160H132.971V158.352C132.683 158.875 132.257 159.307 131.691 159.648C131.126 159.979 130.465 160.144 129.707 160.144C128.929 160.144 128.219 159.952 127.579 159.568C126.95 159.184 126.454 158.645 126.091 157.952C125.729 157.259 125.547 156.469 125.547 155.584ZM132.971 155.6C132.971 154.939 132.838 154.363 132.571 153.872C132.305 153.381 131.942 153.008 131.483 152.752C131.035 152.485 130.539 152.352 129.995 152.352C129.451 152.352 128.955 152.48 128.507 152.736C128.059 152.992 127.702 153.365 127.435 153.856C127.169 154.347 127.035 154.923 127.035 155.584C127.035 156.256 127.169 156.843 127.435 157.344C127.702 157.835 128.059 158.213 128.507 158.48C128.955 158.736 129.451 158.864 129.995 158.864C130.539 158.864 131.035 158.736 131.483 158.48C131.942 158.213 132.305 157.835 132.571 157.344C132.838 156.843 132.971 156.261 132.971 155.6ZM144.68 151.232V160H143.224V158.704C142.947 159.152 142.557 159.504 142.056 159.76C141.565 160.005 141.021 160.128 140.424 160.128C139.741 160.128 139.128 159.989 138.584 159.712C138.04 159.424 137.608 158.997 137.288 158.432C136.979 157.867 136.824 157.179 136.824 156.368V151.232H138.264V156.176C138.264 157.04 138.483 157.707 138.92 158.176C139.357 158.635 139.955 158.864 140.712 158.864C141.491 158.864 142.104 158.624 142.552 158.144C143 157.664 143.224 156.965 143.224 156.048V151.232H144.68ZM146.594 155.6C146.594 154.693 146.776 153.904 147.138 153.232C147.501 152.549 148.002 152.021 148.642 151.648C149.293 151.275 150.034 151.088 150.866 151.088C151.944 151.088 152.829 151.349 153.522 151.872C154.226 152.395 154.69 153.12 154.914 154.048H153.346C153.197 153.515 152.904 153.093 152.466 152.784C152.04 152.475 151.506 152.32 150.866 152.32C150.034 152.32 149.362 152.608 148.85 153.184C148.338 153.749 148.082 154.555 148.082 155.6C148.082 156.656 148.338 157.472 148.85 158.048C149.362 158.624 150.034 158.912 150.866 158.912C151.506 158.912 152.04 158.763 152.466 158.464C152.893 158.165 153.186 157.739 153.346 157.184H154.914C154.68 158.08 154.21 158.8 153.506 159.344C152.802 159.877 151.922 160.144 150.866 160.144C150.034 160.144 149.293 159.957 148.642 159.584C148.002 159.211 147.501 158.683 147.138 158C146.776 157.317 146.594 156.517 146.594 155.6ZM158.633 152.432V157.6C158.633 158.027 158.724 158.331 158.905 158.512C159.086 158.683 159.401 158.768 159.849 158.768H160.921V160H159.609C158.798 160 158.19 159.813 157.785 159.44C157.38 159.067 157.177 158.453 157.177 157.6V152.432H156.041V151.232H157.177V149.024H158.633V151.232H160.921V152.432H158.633ZM170.487 160.112C169.751 160.112 169.089 159.984 168.503 159.728C167.927 159.461 167.473 159.099 167.143 158.64C166.812 158.171 166.641 157.632 166.631 157.024H168.183C168.236 157.547 168.449 157.989 168.823 158.352C169.207 158.704 169.761 158.88 170.487 158.88C171.18 158.88 171.724 158.709 172.119 158.368C172.524 158.016 172.727 157.568 172.727 157.024C172.727 156.597 172.609 156.251 172.375 155.984C172.14 155.717 171.847 155.515 171.495 155.376C171.143 155.237 170.668 155.088 170.071 154.928C169.335 154.736 168.743 154.544 168.295 154.352C167.857 154.16 167.479 153.861 167.159 153.456C166.849 153.04 166.695 152.485 166.695 151.792C166.695 151.184 166.849 150.645 167.159 150.176C167.468 149.707 167.9 149.344 168.455 149.088C169.02 148.832 169.665 148.704 170.391 148.704C171.436 148.704 172.289 148.965 172.951 149.488C173.623 150.011 174.001 150.704 174.087 151.568H172.487C172.433 151.141 172.209 150.768 171.815 150.448C171.42 150.117 170.897 149.952 170.247 149.952C169.639 149.952 169.143 150.112 168.759 150.432C168.375 150.741 168.183 151.179 168.183 151.744C168.183 152.149 168.295 152.48 168.519 152.736C168.753 152.992 169.036 153.189 169.367 153.328C169.708 153.456 170.183 153.605 170.791 153.776C171.527 153.979 172.119 154.181 172.567 154.384C173.015 154.576 173.399 154.88 173.719 155.296C174.039 155.701 174.199 156.256 174.199 156.96C174.199 157.504 174.055 158.016 173.767 158.496C173.479 158.976 173.052 159.365 172.487 159.664C171.921 159.963 171.255 160.112 170.487 160.112ZM175.797 155.584C175.797 154.688 175.979 153.904 176.341 153.232C176.704 152.549 177.2 152.021 177.829 151.648C178.469 151.275 179.179 151.088 179.957 151.088C180.725 151.088 181.392 151.253 181.957 151.584C182.523 151.915 182.944 152.331 183.221 152.832V151.232H184.693V160H183.221V158.368C182.933 158.88 182.501 159.307 181.925 159.648C181.36 159.979 180.699 160.144 179.941 160.144C179.163 160.144 178.459 159.952 177.829 159.568C177.2 159.184 176.704 158.645 176.341 157.952C175.979 157.259 175.797 156.469 175.797 155.584ZM183.221 155.6C183.221 154.939 183.088 154.363 182.821 153.872C182.555 153.381 182.192 153.008 181.733 152.752C181.285 152.485 180.789 152.352 180.245 152.352C179.701 152.352 179.205 152.48 178.757 152.736C178.309 152.992 177.952 153.365 177.685 153.856C177.419 154.347 177.285 154.923 177.285 155.584C177.285 156.256 177.419 156.843 177.685 157.344C177.952 157.835 178.309 158.213 178.757 158.48C179.205 158.736 179.701 158.864 180.245 158.864C180.789 158.864 181.285 158.736 181.733 158.48C182.192 158.213 182.555 157.835 182.821 157.344C183.088 156.843 183.221 156.261 183.221 155.6ZM188.61 148.16V160H187.154V148.16H188.61ZM199.091 155.28C199.091 155.557 199.075 155.851 199.043 156.16H192.035C192.089 157.024 192.382 157.701 192.915 158.192C193.459 158.672 194.115 158.912 194.883 158.912C195.513 158.912 196.035 158.768 196.451 158.48C196.878 158.181 197.177 157.787 197.347 157.296H198.915C198.681 158.139 198.211 158.827 197.507 159.36C196.803 159.883 195.929 160.144 194.883 160.144C194.051 160.144 193.305 159.957 192.643 159.584C191.993 159.211 191.481 158.683 191.107 158C190.734 157.307 190.547 156.507 190.547 155.6C190.547 154.693 190.729 153.899 191.091 153.216C191.454 152.533 191.961 152.011 192.611 151.648C193.273 151.275 194.03 151.088 194.883 151.088C195.715 151.088 196.451 151.269 197.091 151.632C197.731 151.995 198.222 152.496 198.563 153.136C198.915 153.765 199.091 154.48 199.091 155.28ZM197.587 154.976C197.587 154.421 197.465 153.947 197.219 153.552C196.974 153.147 196.638 152.843 196.211 152.64C195.795 152.427 195.331 152.32 194.819 152.32C194.083 152.32 193.454 152.555 192.931 153.024C192.419 153.493 192.126 154.144 192.051 154.976H197.587Z" fill="white"/>
</svg>
