<svg width="118" height="24" viewBox="0 0 118 24" fill="none" xmlns="http://www.w3.org/2000/svg">
<path d="M10.9858 8.56534C10.9176 7.87784 10.625 7.34375 10.108 6.96307C9.59091 6.58239 8.8892 6.39204 8.00284 6.39204C7.40057 6.39204 6.89205 6.47727 6.47727 6.64773C6.0625 6.8125 5.74432 7.04261 5.52273 7.33807C5.30682 7.63352 5.19886 7.96875 5.19886 8.34375C5.1875 8.65625 5.25284 8.92898 5.39489 9.16193C5.54261 9.39489 5.74432 9.59659 6 9.76705C6.25568 9.93182 6.55114 10.0767 6.88636 10.2017C7.22159 10.321 7.57955 10.4233 7.96023 10.5085L9.52841 10.8835C10.2898 11.054 10.9886 11.2812 11.625 11.5653C12.2614 11.8494 12.8125 12.1989 13.2784 12.6136C13.7443 13.0284 14.1051 13.517 14.3608 14.0795C14.6222 14.642 14.7557 15.2869 14.7614 16.0142C14.7557 17.0824 14.483 18.0085 13.9432 18.7926C13.4091 19.571 12.6364 20.1761 11.625 20.608C10.6193 21.0341 9.40625 21.2472 7.9858 21.2472C6.5767 21.2472 5.34943 21.0312 4.30398 20.5994C3.2642 20.1676 2.4517 19.5284 1.86648 18.6818C1.28693 17.8295 0.982955 16.7756 0.954545 15.5199H4.52557C4.56534 16.1051 4.73295 16.5937 5.02841 16.9858C5.32955 17.3722 5.73011 17.6648 6.23011 17.8636C6.7358 18.0568 7.30682 18.1534 7.94318 18.1534C8.56818 18.1534 9.1108 18.0625 9.57102 17.8807C10.0369 17.6989 10.3977 17.446 10.6534 17.1222C10.9091 16.7983 11.0369 16.4261 11.0369 16.0057C11.0369 15.6136 10.9205 15.2841 10.6875 15.017C10.4602 14.75 10.125 14.5227 9.68182 14.3352C9.24432 14.1477 8.70739 13.9773 8.07102 13.8239L6.17045 13.3466C4.69886 12.9886 3.53693 12.429 2.68466 11.6676C1.83239 10.9062 1.40909 9.88068 1.41477 8.59091C1.40909 7.53409 1.69034 6.6108 2.25852 5.82102C2.83239 5.03125 3.61932 4.41477 4.61932 3.97159C5.61932 3.52841 6.75568 3.30682 8.02841 3.30682C9.32386 3.30682 10.4545 3.52841 11.4205 3.97159C12.392 4.41477 13.1477 5.03125 13.6875 5.82102C14.2273 6.6108 14.5057 7.52557 14.5227 8.56534H10.9858ZM26.0517 12.392V15.2727H18.0914V12.392H26.0517ZM29.8654 21V7.90909H33.3257V10.2188H33.4791C33.7518 9.4517 34.2063 8.84659 34.8427 8.40341C35.4791 7.96023 36.2404 7.73864 37.1268 7.73864C38.0245 7.73864 38.7887 7.96307 39.4194 8.41193C40.0501 8.85511 40.4705 9.45739 40.6808 10.2188H40.8171C41.0842 9.46875 41.5671 8.86932 42.266 8.42045C42.9705 7.96591 43.8029 7.73864 44.7632 7.73864C45.9847 7.73864 46.9762 8.12784 47.7376 8.90625C48.5046 9.67898 48.8882 10.7756 48.8882 12.196V21H45.266V12.9119C45.266 12.1847 45.0728 11.6392 44.6864 11.2756C44.3001 10.9119 43.8171 10.7301 43.2376 10.7301C42.5785 10.7301 42.0643 10.9403 41.695 11.3608C41.3257 11.7756 41.141 12.3239 41.141 13.0057V21H37.6211V12.8352C37.6211 12.1932 37.4364 11.6818 37.0671 11.3011C36.7035 10.9205 36.2234 10.7301 35.6268 10.7301C35.2234 10.7301 34.8597 10.8324 34.5359 11.0369C34.2177 11.2358 33.9649 11.517 33.7774 11.8807C33.5899 12.2386 33.4961 12.6591 33.4961 13.142V21H29.8654ZM56.209 21.2472C55.3738 21.2472 54.6295 21.1023 53.9761 20.8125C53.3226 20.517 52.8056 20.0824 52.4249 19.5085C52.0499 18.929 51.8624 18.2074 51.8624 17.3438C51.8624 16.6165 51.9959 16.0057 52.263 15.5114C52.53 15.017 52.8937 14.6193 53.3539 14.3182C53.8141 14.017 54.3368 13.7898 54.9221 13.6364C55.513 13.483 56.1323 13.375 56.78 13.3125C57.5414 13.233 58.155 13.1591 58.6209 13.0909C59.0868 13.017 59.4249 12.9091 59.6351 12.767C59.8454 12.625 59.9505 12.4148 59.9505 12.1364V12.0852C59.9505 11.5455 59.78 11.1278 59.4391 10.8324C59.1039 10.5369 58.6266 10.3892 58.0073 10.3892C57.3539 10.3892 56.834 10.5341 56.4476 10.8239C56.0613 11.108 55.8056 11.4659 55.6806 11.8977L52.3226 11.625C52.4931 10.8295 52.8283 10.142 53.3283 9.5625C53.8283 8.97727 54.4732 8.52841 55.263 8.21591C56.0584 7.89773 56.9789 7.73864 58.0243 7.73864C58.7516 7.73864 59.4476 7.82386 60.1124 7.99432C60.7829 8.16477 61.3766 8.42898 61.8937 8.78693C62.4164 9.14489 62.8283 9.60511 63.1295 10.1676C63.4306 10.7244 63.5812 11.392 63.5812 12.1705V21H60.138V19.1847H60.0357C59.8255 19.5938 59.5442 19.9545 59.192 20.267C58.8397 20.5739 58.4164 20.8153 57.9221 20.9915C57.4278 21.1619 56.8567 21.2472 56.209 21.2472ZM57.2488 18.7415C57.7829 18.7415 58.2545 18.6364 58.6636 18.4261C59.0726 18.2102 59.3937 17.9205 59.6266 17.5568C59.8596 17.1932 59.9761 16.7812 59.9761 16.321V14.9318C59.8624 15.0057 59.7062 15.0739 59.5073 15.1364C59.3141 15.1932 59.0954 15.2472 58.8511 15.2983C58.6067 15.3437 58.3624 15.3864 58.1181 15.4261C57.8738 15.4602 57.6522 15.4915 57.4533 15.5199C57.0272 15.5824 56.655 15.6818 56.3368 15.8182C56.0187 15.9545 55.7715 16.1392 55.5954 16.3722C55.4192 16.5994 55.3312 16.8835 55.3312 17.2244C55.3312 17.7188 55.5101 18.0966 55.8681 18.358C56.2317 18.6136 56.692 18.7415 57.2488 18.7415ZM67.1179 21V7.90909H70.6378V10.1932H70.7742C71.0128 9.38068 71.4134 8.76705 71.9759 8.35227C72.5384 7.93182 73.1861 7.72159 73.9191 7.72159C74.1009 7.72159 74.2969 7.73295 74.5071 7.75568C74.7174 7.77841 74.902 7.80966 75.0611 7.84943V11.071C74.8907 11.0199 74.6549 10.9744 74.3537 10.9347C74.0526 10.8949 73.777 10.875 73.527 10.875C72.9929 10.875 72.5157 10.9915 72.0952 11.2244C71.6804 11.4517 71.3509 11.7699 71.1066 12.179C70.8679 12.5881 70.7486 13.0597 70.7486 13.5938V21H67.1179ZM85.2776 7.90909V10.6364H77.394V7.90909H85.2776ZM79.1838 4.77273H82.8145V16.9773C82.8145 17.3125 82.8656 17.5739 82.9679 17.7614C83.0702 17.9432 83.2122 18.071 83.394 18.1449C83.5815 18.2187 83.7974 18.2557 84.0418 18.2557C84.2122 18.2557 84.3827 18.2415 84.5531 18.2131C84.7236 18.179 84.8543 18.1534 84.9452 18.1364L85.5162 20.8381C85.3344 20.8949 85.0787 20.9602 84.7491 21.0341C84.4196 21.1136 84.019 21.1619 83.5474 21.179C82.6724 21.2131 81.9054 21.0966 81.2463 20.8295C80.5929 20.5625 80.0844 20.1477 79.7207 19.5852C79.3571 19.0227 79.1781 18.3125 79.1838 17.4545V4.77273Z" fill="black"/>
</svg>
